<svg xmlns="http://www.w3.org/2000/svg" width="33" height="25" viewBox="0 0 33 25"><path fill="#fff" d="M24.86 15.18h2.38l.29-.02c.46-.1.84-.5.84-1.08 0-.55-.38-.96-.84-1.08-.06-.02-.2-.02-.29-.02h-2.38zM26.97 0a4.15 4.15 0 0 0-4.13 4.17v4.32h5.83c.13 0 .29 0 .41.03 1.31.06 2.29.75 2.29 1.94 0 .94-.66 1.74-1.89 1.9v.05c1.34.09 2.36.84 2.36 2.01 0 1.26-1.13 2.09-2.63 2.09h-6.39v8.47h6.05A4.15 4.15 0 0 0 33 20.8V0zm1.11 10.74a.97.97 0 0 0-.84-.99l-.23-.02h-2.15v2.01h2.15c.07 0 .21 0 .23-.02a.98.98 0 0 0 .84-.98zM.02 4.17v10.28c1.16.57 2.36.93 3.56.93 1.43 0 2.2-.87 2.2-2.06V8.47h3.54v4.83c0 1.88-1.16 3.41-5.08 3.41-2.38 0-4.24-.52-4.24-.52v8.76h6.06a4.15 4.15 0 0 0 4.12-4.16V0H4.15A4.15 4.15 0 0 0 .02 4.17zM15.56 0h6.05v20.83A4.15 4.15 0 0 1 17.49 25h-6.06v-9.62c1.04.9 2.86 1.47 5.78 1.33 1.59-.07 3.25-.5 3.25-.5v-1.76c-.84.4-1.84.82-3.13.91-2.23.19-3.56-.91-3.56-2.86 0-1.92 1.33-3.02 3.56-2.86 1.29.09 2.29.48 3.13.91V8.8s-1.68-.43-3.25-.5c-2.92-.14-4.74.43-5.78 1.32V4.17A4.15 4.15 0 0 1 15.56 0z"/></svg>