<svg xmlns="http://www.w3.org/2000/svg" width="7" height="18" viewBox="0 0 7 18"><path fill="#fff" d="M6.49 4.7c-.34-.31-.81-.46-1.42-.46h-3.1a2.3 2.3 0 0 0-1.42.41c-.37.27-.55.7-.55 1.28v4.65c0 .25.1.43.3.54.2.1.4.1.59 0 .19-.11.28-.3.28-.54V6.34h.38v10.8c0 .57.26.86.78.86.51 0 .77-.29.77-.86V11.8h.8v5.33c0 .57.26.86.77.86.52 0 .78-.29.78-.86V6.34h.38v3.95c0 .3.09.52.28.66.19.14.39.14.59 0 .2-.14.3-.35.3-.66V5.97c0-.55-.17-.98-.51-1.28zM2.33 2.97a1.75 1.75 0 0 1-.48-1.23c0-.48.16-.9.48-1.24a1.5 1.5 0 0 1 2.27 0c.31.35.47.75.47 1.22 0 .5-.16.91-.47 1.25a1.5 1.5 0 0 1-2.27 0z"/></svg>